<svg xmlns="http://www.w3.org/2000/svg" viewBox="0 0 960 540" fill="none">
  <rect width="960" height="540" fill="#0c1118"/>
  <defs><marker id="a" markerWidth="8" markerHeight="8" refX="6" refY="3" orient="auto"><path d="M0,0 L6,3 L0,6 Z" fill="#f0a35e"/></marker></defs>
  <rect x="380" y="40" width="200" height="56" rx="10" fill="#15202e" stroke="#e8eef7" stroke-width="2"/><text x="480.0" y="72.0" text-anchor="middle" fill="#e8eef7" font-family="IBM Plex Mono, monospace" font-size="14">question</text>
  <rect x="80" y="180" width="280" height="80" rx="10" fill="#15202e" stroke="#f0a35e" stroke-width="2"/><text x="220.0" y="216.0" text-anchor="middle" fill="#e8eef7" font-family="IBM Plex Mono, monospace" font-size="14">Inverted index</text><text x="220.0" y="236.0" text-anchor="middle" fill="#8b97a8" font-family="IBM Plex Mono, monospace" font-size="11">BM25 / Elastic · fast</text>
  <rect x="600" y="180" width="280" height="80" rx="10" fill="#15202e" stroke="#5ec8d4" stroke-width="2"/><text x="740.0" y="216.0" text-anchor="middle" fill="#e8eef7" font-family="IBM Plex Mono, monospace" font-size="14">Semantic index</text><text x="740.0" y="236.0" text-anchor="middle" fill="#8b97a8" font-family="IBM Plex Mono, monospace" font-size="11">embeddings · meaning</text>
  <rect x="300" y="360" width="360" height="80" rx="10" fill="#15202e" stroke="#f0a35e" stroke-width="2"/><text x="480.0" y="396.0" text-anchor="middle" fill="#e8eef7" font-family="IBM Plex Mono, monospace" font-size="14">merge / rerank → top-k</text><text x="480.0" y="416.0" text-anchor="middle" fill="#8b97a8" font-family="IBM Plex Mono, monospace" font-size="11">Hybrid · Tiered · Fallback</text>
  <line x1="420" y1="96" x2="220" y2="180" stroke="#f0a35e" stroke-width="1.5" marker-end="url(#a)"/>
  <line x1="540" y1="96" x2="740" y2="180" stroke="#5ec8d4" stroke-width="1.5" marker-end="url(#a)"/>
  <line x1="220" y1="260" x2="400" y2="360" stroke="#f0a35e" stroke-width="1.5" marker-end="url(#a)"/>
  <line x1="740" y1="260" x2="560" y2="360" stroke="#5ec8d4" stroke-width="1.5" marker-end="url(#a)"/>
  <text x="480" y="500" text-anchor="middle" fill="#8b97a8" font-family="IBM Plex Mono, monospace" font-size="13">keyword filter + meaning rank = pragmatic semantic search</text>
</svg>
