<svg xmlns="http://www.w3.org/2000/svg" viewBox="0 0 960 540" fill="none">
  <rect width="960" height="540" fill="#0c1118"/>
  <defs><marker id="a" markerWidth="8" markerHeight="8" refX="6" refY="3" orient="auto"><path d="M0,0 L6,3 L0,6 Z" fill="#5ec8d4"/></marker></defs>
  <rect x="40" y="120" width="180" height="70" rx="10" fill="#15202e" stroke="#f0a35e" stroke-width="2"/><text x="130.0" y="159.0" text-anchor="middle" fill="#e8eef7" font-family="IBM Plex Mono, monospace" font-size="14">documents</text>
  <rect x="260" y="120" width="140" height="70" rx="10" fill="#15202e" stroke="#5ec8d4" stroke-width="2"/><text x="330.0" y="159.0" text-anchor="middle" fill="#e8eef7" font-family="IBM Plex Mono, monospace" font-size="14">chunk</text>
  <rect x="440" y="120" width="160" height="70" rx="10" fill="#15202e" stroke="#f0a35e" stroke-width="2"/><text x="520.0" y="159.0" text-anchor="middle" fill="#e8eef7" font-family="IBM Plex Mono, monospace" font-size="14">embed</text>
  <rect x="640" y="100" width="280" height="110" rx="10" fill="#15202e" stroke="#5ec8d4" stroke-width="2"/><text x="780.0" y="151.0" text-anchor="middle" fill="#e8eef7" font-family="IBM Plex Mono, monospace" font-size="14">vector DB</text><text x="780.0" y="171.0" text-anchor="middle" fill="#8b97a8" font-family="IBM Plex Mono, monospace" font-size="11">ANN · metadata · CRUD</text>
  <rect x="40" y="340" width="180" height="70" rx="10" fill="#15202e" stroke="#f0a35e" stroke-width="2"/><text x="130.0" y="379.0" text-anchor="middle" fill="#e8eef7" font-family="IBM Plex Mono, monospace" font-size="14">question</text>
  <rect x="260" y="340" width="160" height="70" rx="10" fill="#15202e" stroke="#5ec8d4" stroke-width="2"/><text x="340.0" y="379.0" text-anchor="middle" fill="#e8eef7" font-family="IBM Plex Mono, monospace" font-size="14">embed</text>
  <rect x="460" y="340" width="200" height="70" rx="10" fill="#15202e" stroke="#f0a35e" stroke-width="2"/><text x="560.0" y="379.0" text-anchor="middle" fill="#e8eef7" font-family="IBM Plex Mono, monospace" font-size="14">top-k search</text>
  <rect x="700" y="340" width="200" height="70" rx="10" fill="#15202e" stroke="#5ec8d4" stroke-width="2"/><text x="800.0" y="379.0" text-anchor="middle" fill="#e8eef7" font-family="IBM Plex Mono, monospace" font-size="14">RAG / search</text>
  <line x1="220" y1="155" x2="260" y2="155" stroke="#f0a35e" stroke-width="2" marker-end="url(#a)"/>
  <line x1="400" y1="155" x2="440" y2="155" stroke="#5ec8d4" stroke-width="2" marker-end="url(#a)"/>
  <line x1="600" y1="155" x2="640" y2="155" stroke="#f0a35e" stroke-width="2" marker-end="url(#a)"/>
  <line x1="220" y1="375" x2="260" y2="375" stroke="#f0a35e" stroke-width="2" marker-end="url(#a)"/>
  <line x1="420" y1="375" x2="460" y2="375" stroke="#5ec8d4" stroke-width="2" marker-end="url(#a)"/>
  <line x1="660" y1="375" x2="700" y2="375" stroke="#f0a35e" stroke-width="2" marker-end="url(#a)"/>
  <text x="480" y="60" text-anchor="middle" fill="#e8eef7" font-family="Sora, sans-serif" font-size="26">Index once · query many times</text>
</svg>
