<svg xmlns="http://www.w3.org/2000/svg" viewBox="0 0 960 540" fill="none">
  <rect width="960" height="540" fill="#0c1118"/>
  <defs><marker id="a" markerWidth="8" markerHeight="8" refX="6" refY="3" orient="auto"><path d="M0,0 L6,3 L0,6 Z" fill="#f0a35e"/></marker></defs>
  <rect x="40" y="220" width="140" height="70" rx="10" fill="#15202e" stroke="#f0a35e" stroke-width="2"/><text x="110.0" y="251.0" text-anchor="middle" fill="#e8eef7" font-family="IBM Plex Mono, monospace" font-size="14">input</text><text x="110.0" y="271.0" text-anchor="middle" fill="#8b97a8" font-family="IBM Plex Mono, monospace" font-size="11">text / image</text>
  <rect x="220" y="220" width="150" height="70" rx="10" fill="#15202e" stroke="#5ec8d4" stroke-width="2"/><text x="295.0" y="251.0" text-anchor="middle" fill="#e8eef7" font-family="IBM Plex Mono, monospace" font-size="14">embedding</text><text x="295.0" y="271.0" text-anchor="middle" fill="#8b97a8" font-family="IBM Plex Mono, monospace" font-size="11">vector</text>
  <rect x="410" y="220" width="160" height="70" rx="10" fill="#15202e" stroke="#f0a35e" stroke-width="2"/><text x="490.0" y="251.0" text-anchor="middle" fill="#e8eef7" font-family="IBM Plex Mono, monospace" font-size="14">class head</text><text x="490.0" y="271.0" text-anchor="middle" fill="#8b97a8" font-family="IBM Plex Mono, monospace" font-size="11">logits</text>
  <rect x="610" y="220" width="140" height="70" rx="10" fill="#15202e" stroke="#5ec8d4" stroke-width="2"/><text x="680.0" y="251.0" text-anchor="middle" fill="#e8eef7" font-family="IBM Plex Mono, monospace" font-size="14">softmax</text><text x="680.0" y="271.0" text-anchor="middle" fill="#8b97a8" font-family="IBM Plex Mono, monospace" font-size="11">probs</text>
  <rect x="790" y="220" width="130" height="70" rx="10" fill="#15202e" stroke="#f0a35e" stroke-width="2"/><text x="855.0" y="251.0" text-anchor="middle" fill="#e8eef7" font-family="IBM Plex Mono, monospace" font-size="14">label</text><text x="855.0" y="271.0" text-anchor="middle" fill="#8b97a8" font-family="IBM Plex Mono, monospace" font-size="11">argmax</text>
  <line x1="180" y1="255" x2="220" y2="255" stroke="#f0a35e" stroke-width="2" marker-end="url(#a)"/>
  <line x1="370" y1="255" x2="410" y2="255" stroke="#5ec8d4" stroke-width="2" marker-end="url(#a)"/>
  <line x1="570" y1="255" x2="610" y2="255" stroke="#f0a35e" stroke-width="2" marker-end="url(#a)"/>
  <line x1="750" y1="255" x2="790" y2="255" stroke="#5ec8d4" stroke-width="2" marker-end="url(#a)"/>
  <text x="480" y="120" text-anchor="middle" fill="#e8eef7" font-family="Sora, sans-serif" font-size="28">Classification pipeline</text>
  <text x="480" y="400" text-anchor="middle" fill="#8b97a8" font-family="IBM Plex Mono, monospace" font-size="14">train with cross-entropy · evaluate with F1 on imbalanced data</text>
</svg>
