<svg xmlns="http://www.w3.org/2000/svg" viewBox="0 0 960 540" fill="none">
  <rect width="960" height="540" fill="#0c1118"/>
  <defs><marker id="a" markerWidth="8" markerHeight="8" refX="6" refY="3" orient="auto"><path d="M0,0 L6,3 L0,6 Z" fill="#f0a35e"/></marker></defs>
  <rect x="80" y="200" width="160" height="100" rx="10" fill="#15202e" stroke="#f0a35e" stroke-width="2"/><text x="160.0" y="246.0" text-anchor="middle" fill="#e8eef7" font-family="IBM Plex Mono, monospace" font-size="14">1 · forward</text><text x="160.0" y="266.0" text-anchor="middle" fill="#8b97a8" font-family="IBM Plex Mono, monospace" font-size="11">logits = model(x)</text>
  <rect x="290" y="200" width="160" height="100" rx="10" fill="#15202e" stroke="#5ec8d4" stroke-width="2"/><text x="370.0" y="246.0" text-anchor="middle" fill="#e8eef7" font-family="IBM Plex Mono, monospace" font-size="14">2 · loss</text><text x="370.0" y="266.0" text-anchor="middle" fill="#8b97a8" font-family="IBM Plex Mono, monospace" font-size="11">vs labels</text>
  <rect x="500" y="200" width="160" height="100" rx="10" fill="#15202e" stroke="#f0a35e" stroke-width="2"/><text x="580.0" y="246.0" text-anchor="middle" fill="#e8eef7" font-family="IBM Plex Mono, monospace" font-size="14">3 · backward</text><text x="580.0" y="266.0" text-anchor="middle" fill="#8b97a8" font-family="IBM Plex Mono, monospace" font-size="11">gradients</text>
  <rect x="710" y="200" width="160" height="100" rx="10" fill="#15202e" stroke="#5ec8d4" stroke-width="2"/><text x="790.0" y="246.0" text-anchor="middle" fill="#e8eef7" font-family="IBM Plex Mono, monospace" font-size="14">4 · step</text><text x="790.0" y="266.0" text-anchor="middle" fill="#8b97a8" font-family="IBM Plex Mono, monospace" font-size="11">update W</text>
  <line x1="240" y1="250" x2="290" y2="250" stroke="#f0a35e" stroke-width="2" marker-end="url(#a)"/>
  <line x1="450" y1="250" x2="500" y2="250" stroke="#5ec8d4" stroke-width="2" marker-end="url(#a)"/>
  <line x1="660" y1="250" x2="710" y2="250" stroke="#f0a35e" stroke-width="2" marker-end="url(#a)"/>
  <path d="M790 300 C790 400 160 400 160 300" stroke="#8b97a8" stroke-width="1.5" fill="none" stroke-dasharray="6 4"/>
  <text x="480" y="420" text-anchor="middle" fill="#8b97a8" font-family="IBM Plex Mono, monospace" font-size="13">zero_grad() each batch · many epochs</text>
  <text x="480" y="100" text-anchor="middle" fill="#e8eef7" font-family="Sora, sans-serif" font-size="28">PyTorch batch loop</text>
</svg>
